<svg width="73" height="68" viewBox="0 0 73 68" fill="none" xmlns="http://www.w3.org/2000/svg">
<circle cx="27.5" cy="6.5" r="3.5" fill="#0FD862"/>
<circle cx="49" cy="62" r="6" fill="#0FD862"/>
<circle cx="65" cy="38" r="8" fill="#0FD862"/>
<circle cx="42.5" cy="20.5" r="5.5" fill="#0FD862"/>
<circle cx="21.5" cy="39.5" r="6.5" fill="#0FD862"/>
<circle cx="29.5" cy="55.5" r="4.5" fill="#0FD862"/>
<circle cx="6.5" cy="52.5" r="3.5" fill="#0FD862"/>
<circle cx="5" cy="33" r="5" fill="#0FD862"/>
<circle cx="42.5" cy="41.5" r="3.5" fill="#0FD862"/>
<circle cx="21.5" cy="24.5" r="3.5" fill="#0FD862"/>
<circle cx="53.5" cy="4.5" r="4.5" fill="#0FD862"/>
<path d="M26 35.5L39.5 23M29.5 8L39.5 17.5M44 16.5L52.5 6.5M46.5 23L60.5 34.5M60.5 44L51.5 58M26 40.5C26.8 40.5 36.6667 41.1667 41.5 41.5M40.5 24.5L30 53M23.5 44L28 53M17.5 42.5L8 51.5M8 34.5L16 37.5M21.5 26V35.5" stroke="#0FD862"/>
</svg>
