<svg width="23" height="21" viewBox="0 0 23 21" fill="none" xmlns="http://www.w3.org/2000/svg">
<path d="M18.2355 12.6563C17.4915 12.5247 16.7771 12.5297 16.7771 12.5297C16.7771 12.5297 15.0212 12.7098 14.5721 13.9457C14.123 15.1816 14.2544 16.0893 13.8373 16.7394C13.4202 17.3895 13.0452 17.6243 12.9033 17.8546C12.7614 18.0849 12.5206 18.5609 13.0636 19.0625C13.6065 19.5641 14.6281 19.7801 15.3721 19.7739C16.1161 19.7677 17.2351 19.5268 18.2355 18.9711C19.2359 18.4155 19.6916 17.7294 19.9108 17.4272C20.1299 17.1249 20.6276 15.7703 20.5398 14.9118C20.452 14.0533 19.9656 13.468 19.5691 13.1506C19.1726 12.8331 18.7361 12.7448 18.2355 12.6563ZM18.2355 12.6563C18.3461 12.4661 18.4125 12.2158 18.4427 12.0003M18.4427 12.0003C18.4746 11.7727 18.5948 11.4598 18.5757 11.1178C19.082 10.6766 20.0788 10.6273 21.3442 11.1386C21.478 11.1926 20.7228 11.8915 19.9299 12.1114C19.2038 12.3128 18.4427 12.0003 18.4427 12.0003Z" stroke="#54CF62"/>
<path d="M17.2393 10.0883C17.2393 10.0883 17.0705 9.5 17.9144 9.5C18.3413 9.5 18.927 9.94123 18.4207 12.5886L17.7456 12.5886C17.8629 12.3075 17.7841 11.5453 17.5768 10.9708C17.3864 10.4429 17.2393 10.0883 17.2393 10.0883Z" fill="#54CF62"/>
<path d="M1.10413 12.0781C0.441156 12.0781 0.501427 12.7312 0.501427 12.7312L0.501427 13.7406H2.43007H7.55302V12.7312C7.55302 12.1969 7.01059 12.0781 7.01059 12.0781H1.10413Z" fill="#54CF62"/>
<path d="M0.501427 13.7406C0.501427 13.154 0.501427 12.7312 0.501427 12.7312C0.501427 12.7312 0.441156 12.0781 1.10413 12.0781H7.01059C7.01059 12.0781 7.55302 12.1969 7.55302 12.7312M0.501427 12.7312L0.501427 13.7406M7.55302 12.7312C7.55302 12.8746 7.55302 13.2573 7.55302 13.7406M7.55302 12.7312V13.7406M0.501427 13.7406C0.501427 14.8852 0.501427 16.6539 0.501427 17.125C0.501426 17.8375 1.10413 17.8969 1.10413 17.8969C1.10413 17.8969 1.6591 17.8969 2.43007 17.8969M0.501427 13.7406H2.43007M7.55302 13.7406C7.55302 15.0587 7.55302 17.125 7.55302 17.125C7.55302 17.125 7.6133 17.7781 7.01059 17.8969C6.64264 17.8969 4.056 17.8969 2.43007 17.8969M7.55302 13.7406H2.43007M2.43007 13.7406V17.8969" stroke="#54CF62"/>
<path d="M15.2256 0.5C14.478 0.5 14.546 1.35306 14.546 1.35306L14.546 2.67143H16.7209H22.4981V1.35306C22.4981 0.655102 21.8864 0.5 21.8864 0.5H15.2256Z" fill="#54CF62"/>
<path d="M14.546 2.67143C14.546 1.90517 14.546 1.35306 14.546 1.35306C14.546 1.35306 14.478 0.5 15.2256 0.5H21.8864C21.8864 0.5 22.4981 0.655102 22.4981 1.35306M14.546 1.35306L14.546 2.67143M22.4981 1.35306C22.4981 1.54032 22.4981 2.04018 22.4981 2.67143M22.4981 1.35306V2.67143M14.546 2.67143C14.546 4.16643 14.546 6.47657 14.546 7.09184C14.546 8.02245 15.2256 8.1 15.2256 8.1C15.2256 8.1 15.8515 8.1 16.7209 8.1M14.546 2.67143H16.7209M22.4981 2.67143C22.4981 4.39301 22.4981 7.09184 22.4981 7.09184C22.4981 7.09184 22.5661 7.9449 21.8864 8.1C21.4715 8.1 18.5545 8.1 16.7209 8.1M22.4981 2.67143H16.7209M16.7209 2.67143V8.1" stroke="#54CF62"/>
<path d="M3.87655 11.9594V10.4156C3.87655 10.4156 3.75601 9.88125 4.59979 9.88125C5.44357 9.88125 12.0733 9.88125 12.0733 9.88125C12.0733 9.88125 12.676 9.88125 12.676 10.5938C12.676 11.3063 12.676 14.2156 12.676 14.2156C12.676 14.2156 12.5554 14.9281 13.2184 14.9281C13.8814 14.9281 14.4238 14.9281 14.4238 14.9281M7.61329 14.9281C7.61329 14.9281 9.30086 14.9281 10.0241 14.9281C10.7473 14.9281 10.7473 14.2156 10.7473 14.2156C10.7473 14.2156 10.7473 4.59688 10.7473 4.12188C10.7473 3.64688 11.4103 3.46875 11.4103 3.46875H14.4238" stroke="#54CF62"/>
<ellipse cx="10.6871" cy="9.88125" rx="0.964321" ry="0.95" fill="#54CF62"/>
</svg>
